<svg width="100" height="97" viewBox="0 0 100 97" fill="none" xmlns="http://www.w3.org/2000/svg">
<path d="M50 66.6875C45.0272 66.6875 40.2581 64.7713 36.7418 61.3605C33.2254 57.9497 31.25 53.3236 31.25 48.5C31.25 43.6764 33.2254 39.0503 36.7418 35.6395C40.2581 32.2287 45.0272 30.3125 50 30.3125C54.9728 30.3125 59.7419 32.2287 63.2583 35.6395C66.7746 39.0503 68.75 43.6764 68.75 48.5C68.75 53.3236 66.7746 57.9497 63.2583 61.3605C59.7419 64.7713 54.9728 66.6875 50 66.6875ZM50 72.75C56.6304 72.75 62.9893 70.1951 67.6777 65.6473C72.3661 61.0996 75 54.9315 75 48.5C75 42.0685 72.3661 35.9004 67.6777 31.3527C62.9893 26.8049 56.6304 24.25 50 24.25C43.3696 24.25 37.0107 26.8049 32.3223 31.3527C27.6339 35.9004 25 42.0685 25 48.5C25 54.9315 27.6339 61.0996 32.3223 65.6473C37.0107 70.1951 43.3696 72.75 50 72.75ZM50 0C50.8288 0 51.6237 0.319363 52.2097 0.887833C52.7958 1.4563 53.125 2.22731 53.125 3.03125V15.1562C53.125 15.9602 52.7958 16.7312 52.2097 17.2997C51.6237 17.8681 50.8288 18.1875 50 18.1875C49.1712 18.1875 48.3763 17.8681 47.7903 17.2997C47.2042 16.7312 46.875 15.9602 46.875 15.1562V3.03125C46.875 2.22731 47.2042 1.4563 47.7903 0.887833C48.3763 0.319363 49.1712 0 50 0ZM50 78.8125C50.8288 78.8125 51.6237 79.1319 52.2097 79.7003C52.7958 80.2688 53.125 81.0398 53.125 81.8437V93.9687C53.125 94.7727 52.7958 95.5437 52.2097 96.1122C51.6237 96.6806 50.8288 97 50 97C49.1712 97 48.3763 96.6806 47.7903 96.1122C47.2042 95.5437 46.875 94.7727 46.875 93.9687V81.8437C46.875 81.0398 47.2042 80.2688 47.7903 79.7003C48.3763 79.1319 49.1712 78.8125 50 78.8125ZM100 48.5C100 49.3039 99.6708 50.0749 99.0847 50.6434C98.4987 51.2119 97.7038 51.5312 96.875 51.5312H84.375C83.5462 51.5312 82.7513 51.2119 82.1653 50.6434C81.5792 50.0749 81.25 49.3039 81.25 48.5C81.25 47.6961 81.5792 46.9251 82.1653 46.3566C82.7513 45.7881 83.5462 45.4687 84.375 45.4687H96.875C97.7038 45.4687 98.4987 45.7881 99.0847 46.3566C99.6708 46.9251 100 47.6961 100 48.5ZM18.75 48.5C18.75 49.3039 18.4208 50.0749 17.8347 50.6434C17.2487 51.2119 16.4538 51.5312 15.625 51.5312H3.125C2.2962 51.5312 1.50134 51.2119 0.915291 50.6434C0.32924 50.0749 0 49.3039 0 48.5C0 47.6961 0.32924 46.9251 0.915291 46.3566C1.50134 45.7881 2.2962 45.4687 3.125 45.4687H15.625C16.4538 45.4687 17.2487 45.7881 17.8347 46.3566C18.4208 46.9251 18.75 47.6961 18.75 48.5ZM85.3562 14.2044C85.9421 14.7729 86.2712 15.5438 86.2712 16.3475C86.2712 17.1513 85.9421 17.9222 85.3562 18.4906L76.5187 27.0691C76.2282 27.3505 75.8833 27.5737 75.5039 27.7258C75.1244 27.878 74.7178 27.9562 74.3072 27.9559C73.4779 27.9553 72.6828 27.6352 72.0969 27.066C71.8067 26.7842 71.5767 26.4497 71.4198 26.0816C71.2629 25.7135 71.1823 25.3191 71.1826 24.9208C71.1832 24.1164 71.5132 23.3452 72.1 22.7768L80.9375 14.2044C81.5235 13.6362 82.3182 13.3169 83.1469 13.3169C83.9755 13.3169 84.7702 13.6362 85.3562 14.2044ZM27.9 69.937C28.4858 70.5054 28.815 71.2763 28.815 72.0801C28.815 72.8839 28.4858 73.6547 27.9 74.2232L19.0625 82.7956C18.4731 83.3477 17.6837 83.6533 16.8644 83.6464C16.045 83.6394 15.2612 83.3207 14.6818 82.7586C14.1024 82.1966 13.7738 81.4363 13.7666 80.6416C13.7595 79.8468 14.0745 79.0811 14.6438 78.5094L23.4813 69.937C24.0673 69.3687 24.862 69.0495 25.6906 69.0495C26.5193 69.0495 27.314 69.3687 27.9 69.937ZM85.3562 82.7956C84.7702 83.3638 83.9755 83.6831 83.1469 83.6831C82.3182 83.6831 81.5235 83.3638 80.9375 82.7956L72.1 74.2232C71.5308 73.6515 71.2158 72.8858 71.2229 72.091C71.23 71.2962 71.5587 70.5359 72.1381 69.9739C72.7175 69.4119 73.5013 69.0931 74.3206 69.0862C75.14 69.0793 75.9294 69.3848 76.5187 69.937L85.3562 78.5094C85.9421 79.0778 86.2712 79.8487 86.2712 80.6525C86.2712 81.4562 85.9421 82.2271 85.3562 82.7956ZM27.9 27.0691C27.314 27.6373 26.5193 27.9566 25.6906 27.9566C24.862 27.9566 24.0673 27.6373 23.4813 27.0691L14.6438 18.4906C14.3453 18.211 14.1072 17.8765 13.9434 17.5067C13.7797 17.1369 13.6934 16.7391 13.6898 16.3366C13.6862 15.9341 13.7653 15.535 13.9224 15.1625C14.0796 14.7899 14.3116 14.4515 14.605 14.1669C14.8984 13.8823 15.2473 13.6572 15.6314 13.5048C16.0154 13.3523 16.4269 13.2757 16.8419 13.2791C17.2568 13.2826 17.6669 13.3663 18.0481 13.5251C18.4294 13.684 18.7742 13.9149 19.0625 14.2044L27.9 22.7768C28.191 23.0584 28.4219 23.3929 28.5795 23.7612C28.737 24.1294 28.8181 24.5242 28.8181 24.9229C28.8181 25.3217 28.737 25.7164 28.5795 26.0847C28.4219 26.453 28.191 26.7875 27.9 27.0691Z" fill="#545454"/>
</svg>
