<svg width="115" height="97" viewBox="0 0 115 97" fill="none" xmlns="http://www.w3.org/2000/svg">
<path d="M115 44.4503C115.001 48.3173 114.015 52.1032 112.16 55.359C110.306 58.6147 107.66 61.2036 104.536 62.8184C103.285 60.3473 101.71 58.1017 99.8652 56.1568C102.625 55.3109 104.973 53.2663 106.393 50.4728C107.813 47.6793 108.188 44.3657 107.436 41.261C106.684 38.1563 104.867 35.5147 102.384 33.9174C99.9005 32.3202 96.9549 31.8981 94.1951 32.7439C93.6984 32.8954 93.1786 32.925 92.6708 32.8309C92.1631 32.7368 91.6792 32.5211 91.252 32.1984C90.8248 31.8757 90.4641 31.4535 90.1945 30.9604C89.9249 30.4673 89.7525 29.9148 89.6892 29.3403C89.181 24.7105 87.4967 20.3438 84.8382 16.7636C82.1797 13.1835 78.6598 10.5418 74.7004 9.15519C70.741 7.7686 66.5102 7.69597 62.5151 8.94601C58.52 10.196 54.9301 12.7157 52.1757 16.2029C49.1049 16.0444 46.0281 16.2831 43.0057 16.9144C45.7617 11.2052 49.9816 6.56155 55.1162 3.58798C60.2508 0.614415 66.0622 -0.551349 71.794 0.242442C77.5257 1.03623 82.9123 3.75281 87.2525 8.03854C91.5927 12.3243 94.6855 17.9806 96.1283 24.2713C98.5603 24.1333 100.992 24.5528 103.275 25.5045C105.559 26.4562 107.646 27.9201 109.411 29.8074C111.176 31.6947 112.582 33.9659 113.543 36.4831C114.503 39.0003 114.999 41.7109 115 44.4503Z" fill="#545454"/>
<path d="M50.3217 24.2391C58.2775 24.2374 65.9547 27.5348 71.8851 33.5008C77.8155 39.4668 81.5829 47.6827 82.4669 56.5773H82.6609C87.4258 56.5773 91.9956 58.7067 95.3649 62.497C98.7343 66.2874 100.627 71.4282 100.627 76.7886C100.627 82.149 98.7343 87.2898 95.3649 91.0802C91.9956 94.8706 87.4258 97 82.6609 97H21.5758C16.0088 97.0047 10.656 94.5868 6.63786 90.2523C2.6197 85.9179 0.247684 80.0029 0.0183232 73.7456C-0.211037 67.4883 1.72004 61.3737 5.40734 56.6818C9.09464 51.9899 14.2523 49.0845 19.8007 48.5736C22.0215 41.4611 26.1507 35.2998 31.6179 30.9408C37.0851 26.5818 43.6206 24.24 50.3217 24.2391V24.2391ZM75.4744 60.6195C75.4787 53.7276 73.2469 47.0709 69.1979 41.8988C65.1489 36.7266 59.5612 33.3947 53.4834 32.5284C47.4057 31.6621 41.2558 33.3209 36.1881 37.1936C31.1204 41.0662 27.4834 46.8864 25.9595 53.5617C25.7533 54.4652 25.2758 55.2606 24.6078 55.8132C23.9398 56.3657 23.1225 56.6414 22.2944 56.5934C20.3854 56.4981 18.4786 56.8319 16.6857 57.5755C14.8927 58.319 13.2495 59.4573 11.8523 60.9237C10.455 62.3901 9.33173 64.1553 8.5481 66.1159C7.76447 68.0765 7.33624 70.1933 7.28845 72.3423C7.24067 74.4913 7.5743 76.6295 8.26982 78.6317C8.96534 80.634 10.0088 82.4601 11.3391 84.0033C12.6695 85.5465 14.26 86.7757 16.0177 87.6192C17.7754 88.4626 19.6649 88.9033 21.5758 88.9154H82.6609C84.1894 88.9115 85.6996 88.5419 87.0914 87.8312C88.4833 87.1205 89.7248 86.0849 90.7337 84.7933C91.7426 83.5016 92.4958 81.9833 92.9433 80.3392C93.3908 78.695 93.5224 76.9626 93.3294 75.2569C93.1363 73.5512 92.623 71.9112 91.8236 70.4457C91.0241 68.9802 89.9567 67.7227 88.6923 66.7566C87.4278 65.7906 85.9952 65.1381 84.4895 64.8424C82.9838 64.5468 81.4394 64.6147 79.9588 65.0418C79.4236 65.196 78.8641 65.2093 78.3236 65.0807C77.7831 64.952 77.2763 64.685 76.8425 64.3002C76.4087 63.9154 76.0596 63.4233 75.8223 62.862C75.585 62.3008 75.466 61.6856 75.4744 61.0642V60.6195Z" fill="#545454"/>
</svg>
