<svg width="105" height="91" viewBox="0 0 105 91" fill="none" xmlns="http://www.w3.org/2000/svg">
<path d="M27.2546 66.8063C27.6637 66.9322 28.0419 67.1313 28.3676 67.3923C28.6933 67.6533 28.96 67.9709 29.1527 68.3271C29.3453 68.6833 29.46 69.0711 29.4901 69.4682C29.5203 69.8654 29.4654 70.2641 29.3286 70.6416L26.0469 79.7302C25.7481 80.4636 25.1531 81.0617 24.3869 81.3987C23.6207 81.7358 22.7427 81.7856 21.9375 81.5379C21.1323 81.2901 20.4624 80.7639 20.0684 80.0698C19.6745 79.3758 19.5872 78.5678 19.8249 77.8155L23.1065 68.727C23.3808 67.9645 23.9718 67.3339 24.7497 66.9737C25.5276 66.6135 26.4286 66.5533 27.2546 66.8063ZM66.6345 66.8063C67.0436 66.9322 67.4218 67.1313 67.7475 67.3923C68.0732 67.6533 68.34 67.9709 68.5326 68.3271C68.7252 68.6833 68.8399 69.0711 68.8701 69.4682C68.9003 69.8654 68.8454 70.2641 68.7085 70.6416L65.4269 79.7302C65.1281 80.4636 64.5331 81.0617 63.7669 81.3987C63.0006 81.7358 62.1227 81.7856 61.3175 81.5379C60.5122 81.2901 59.8423 80.7639 59.4484 80.0698C59.0545 79.3758 58.9672 78.5678 59.2048 77.8155L62.4865 68.727C62.7607 67.9645 63.3518 67.3339 64.1296 66.9737C64.9075 66.6135 65.8085 66.5533 66.6345 66.8063ZM43.6629 75.8948C44.072 76.0208 44.4502 76.2199 44.7759 76.4809C45.1016 76.7418 45.3684 77.0595 45.561 77.4157C45.7536 77.7719 45.8683 78.1596 45.8985 78.5568C45.9286 78.9539 45.8737 79.3527 45.7369 79.7302L42.4552 88.8187C42.1564 89.5522 41.5615 90.1502 40.7952 90.4873C40.029 90.8243 39.1511 90.8742 38.3458 90.6264C37.5406 90.3786 36.8707 89.8524 36.4767 89.1584C36.0828 88.4643 35.9955 87.6563 36.2332 86.9041L39.5148 77.8155C39.7891 77.0531 40.3801 76.4224 41.158 76.0622C41.9359 75.702 42.8369 75.6418 43.6629 75.8948ZM83.0428 75.8948C83.4519 76.0208 83.8302 76.2199 84.1558 76.4809C84.4815 76.7418 84.7483 77.0595 84.9409 77.4157C85.1336 77.7719 85.2482 78.1596 85.2784 78.5568C85.3086 78.9539 85.2537 79.3527 85.1168 79.7302L81.8352 88.8187C81.7116 89.21 81.5037 89.5741 81.2241 89.8895C80.9445 90.2048 80.5988 90.4648 80.2078 90.654C79.8168 90.8431 79.3885 90.9575 78.9485 90.9902C78.5085 91.023 78.0658 90.9734 77.647 90.8445C77.2282 90.7157 76.8419 90.5101 76.5112 90.2402C76.1805 89.9703 75.9121 89.6415 75.7222 89.2737C75.5324 88.9058 75.4248 88.5063 75.4061 88.0991C75.3873 87.692 75.4578 87.2855 75.6131 86.9041L78.8948 77.8155C79.169 77.0531 79.7601 76.4224 80.538 76.0622C81.3158 75.702 82.2169 75.6418 83.0428 75.8948ZM87.9456 24.4052C86.5827 18.0623 83.0574 12.2884 77.8854 7.9275C72.7133 3.56663 66.1657 0.847568 59.1999 0.167883C52.234 -0.511802 45.2153 0.883537 39.17 4.14989C33.1247 7.41623 28.3698 12.3823 25.6006 18.3219C22.4951 17.9916 19.3492 18.25 16.3556 19.0811C13.362 19.9123 10.5837 21.2988 8.19069 23.1557C5.79772 25.0125 3.84046 27.3008 2.43875 29.8803C1.03705 32.4598 0.220398 35.2762 0.0387965 38.1572C-0.142805 41.0382 0.314465 43.9231 1.38261 46.6353C2.45076 49.3475 4.1073 51.8298 6.25082 53.9304C8.39434 56.031 10.9797 57.7056 13.8487 58.8517C16.7177 59.9978 19.8098 60.5913 22.9359 60.5958H85.2875C90.2829 60.601 95.0937 58.8533 98.7455 55.7066C102.397 52.5598 104.617 48.2494 104.955 43.6484C105.293 39.0473 103.724 34.4997 100.566 30.9267C97.4073 27.3537 92.8961 25.0225 87.9456 24.4052V24.4052ZM55.7525 6.06448C62.2105 6.06324 68.4425 8.25948 73.2568 12.2333C78.071 16.207 81.1298 21.6795 81.8483 27.6043C81.9375 28.3488 82.3223 29.0363 82.9283 29.5342C83.5343 30.0321 84.3187 30.3052 85.13 30.3006H85.2875C88.7689 30.3006 92.1077 31.5773 94.5694 33.8499C97.0312 36.1225 98.4141 39.2048 98.4141 42.4187C98.4141 45.6326 97.0312 48.7149 94.5694 50.9874C92.1077 53.26 88.7689 54.5367 85.2875 54.5367H22.9359C20.6129 54.5357 18.3167 54.0793 16.1991 53.1978C14.0815 52.3163 12.1908 51.0297 10.6521 49.4232C9.1133 47.8168 7.96157 45.927 7.27305 43.8789C6.58453 41.8308 6.37493 39.6711 6.6581 37.5426C6.94127 35.4142 7.71076 33.3655 8.91567 31.5321C10.1206 29.6987 11.7334 28.1223 13.6476 26.9074C15.5617 25.6924 17.7335 24.8664 20.0192 24.4842C22.3049 24.1019 24.6525 24.1721 26.9067 24.6899C27.7109 24.8751 28.5612 24.7725 29.2868 24.4027C30.0124 24.033 30.5596 23.4234 30.8184 22.6965C32.553 17.8564 35.8959 13.6441 40.3721 10.6583C44.8483 7.6725 50.2301 6.06508 55.7525 6.06448V6.06448Z" fill="#545454"/>
</svg>
