<svg width="84" height="90" viewBox="0 0 84 90" fill="none" xmlns="http://www.w3.org/2000/svg">
<g clip-path="url(#clip0_5_44)">
<path d="M21.924 62.0551C22.5744 62.3177 23.101 62.846 23.3884 63.524C23.6758 64.202 23.7005 64.9745 23.457 65.672L15.582 88.172C15.4709 88.531 15.2933 88.8622 15.0599 89.146C14.8265 89.4297 14.542 89.6601 14.2236 89.8233C13.9052 89.9866 13.5593 90.0793 13.2067 90.0961C12.854 90.1128 12.5018 90.0531 12.1712 89.9207C11.8405 89.7882 11.5382 89.5856 11.2823 89.3251C11.0264 89.0646 10.8222 88.7514 10.6819 88.4044C10.5416 88.0573 10.468 87.6835 10.4656 87.3053C10.4632 86.9271 10.5321 86.5523 10.668 86.2032L18.543 63.7032C18.6639 63.357 18.8472 63.0397 19.0825 62.7695C19.3179 62.4993 19.6007 62.2814 19.9147 62.1283C20.2287 61.9752 20.5678 61.89 20.9126 61.8774C21.2573 61.8649 21.601 61.9252 21.924 62.0551V62.0551ZM37.674 62.0551C38.3244 62.3177 38.851 62.846 39.1384 63.524C39.4258 64.202 39.4505 64.9745 39.207 65.672L31.332 88.172C31.2209 88.531 31.0433 88.8622 30.8099 89.146C30.5765 89.4297 30.292 89.6601 29.9736 89.8233C29.6552 89.9866 29.3093 90.0793 28.9567 90.0961C28.604 90.1128 28.2518 90.0531 27.9212 89.9207C27.5905 89.7882 27.2882 89.5856 27.0323 89.3251C26.7764 89.0646 26.5722 88.7514 26.4319 88.4044C26.2916 88.0573 26.218 87.6835 26.2156 87.3053C26.2132 86.9271 26.2821 86.5523 26.418 86.2032L34.293 63.7032C34.4139 63.357 34.5972 63.0397 34.8325 62.7695C35.0679 62.4993 35.3507 62.2814 35.6647 62.1283C35.9787 61.9752 36.3178 61.89 36.6626 61.8774C37.0073 61.8649 37.351 61.9252 37.674 62.0551V62.0551ZM53.424 62.0551C54.0744 62.3177 54.601 62.846 54.8884 63.524C55.1758 64.202 55.2005 64.9745 54.957 65.672L47.082 88.172C46.9709 88.531 46.7933 88.8622 46.5599 89.146C46.3265 89.4297 46.042 89.6601 45.7236 89.8233C45.4052 89.9866 45.0593 90.0793 44.7067 90.0961C44.354 90.1128 44.0018 90.0531 43.6712 89.9207C43.3405 89.7882 43.0382 89.5856 42.7823 89.3251C42.5265 89.0646 42.3222 88.7514 42.1819 88.4044C42.0416 88.0573 41.968 87.6835 41.9656 87.3053C41.9633 86.9271 42.0321 86.5523 42.168 86.2032L50.043 63.7032C50.1639 63.357 50.3472 63.0397 50.5825 62.7695C50.8179 62.4993 51.1007 62.2814 51.4147 62.1283C51.7287 61.9752 52.0678 61.89 52.4126 61.8774C52.7573 61.8649 53.101 61.9252 53.424 62.0551V62.0551ZM69.174 62.0551C69.8244 62.3177 70.351 62.846 70.6384 63.524C70.9258 64.202 70.9505 64.9745 70.707 65.672L62.832 88.172C62.5705 88.8435 62.0762 89.3803 61.453 89.6696C60.8298 89.9589 60.1262 89.9781 59.4901 89.7233C58.8539 89.4684 58.3347 88.9593 58.0416 88.3029C57.7484 87.6465 57.7042 86.8939 57.918 86.2032L65.793 63.7032C65.9139 63.357 66.0972 63.0397 66.3325 62.7695C66.5679 62.4993 66.8507 62.2814 67.1647 62.1283C67.4787 61.9752 67.8178 61.89 68.1626 61.8774C68.5073 61.8649 68.851 61.9252 69.174 62.0551V62.0551ZM70.3763 22.652C69.286 16.7635 66.4662 11.4032 62.3291 7.35468C58.1919 3.30619 52.9545 0.78191 47.3826 0.150913C41.8106 -0.480084 36.1963 0.815302 31.3607 3.84767C26.5251 6.88004 22.7216 11.4903 20.5065 17.0045C18.0224 16.6979 15.506 16.9377 13.1115 17.7093C10.7169 18.481 8.4945 19.7681 6.58036 21.492C4.66621 23.2159 3.10061 25.3402 1.97938 27.7349C0.858162 30.1296 0.204922 32.7443 0.0596588 35.4189C-0.0856044 38.0936 0.280166 40.7718 1.13458 43.2897C1.98898 45.8076 3.31405 48.1121 5.02865 50.0622C6.74325 52.0124 8.8113 53.567 11.1062 54.631C13.4011 55.695 15.8745 56.2459 18.375 56.2501H68.25C72.2459 56.255 76.094 54.6325 79.0151 51.7111C81.9361 48.7898 83.7116 44.7882 83.9819 40.5167C84.2523 36.2453 82.9972 32.0234 80.4709 28.7064C77.9447 25.3893 74.3361 23.2251 70.3763 22.652V22.652ZM44.625 5.62511C49.7908 5.62397 54.7757 7.66288 58.6267 11.352C62.4776 15.0411 64.9243 20.1216 65.499 25.622C65.5704 26.3131 65.8782 26.9513 66.3629 27.4136C66.8477 27.8759 67.4751 28.1293 68.124 28.1251H68.25C71.0348 28.1251 73.7055 29.3104 75.6746 31.4202C77.6438 33.5299 78.75 36.3914 78.75 39.3751C78.75 42.3588 77.6438 45.2203 75.6746 47.3301C73.7055 49.4398 71.0348 50.6251 68.25 50.6251H18.375C16.5169 50.6241 14.6802 50.2004 12.9863 49.3821C11.2924 48.5637 9.78006 47.3693 8.5492 45.8779C7.31835 44.3865 6.39708 42.6321 5.84633 40.7307C5.29559 38.8294 5.12793 36.8244 5.35443 34.8484C5.58094 32.8724 6.19646 30.9704 7.16026 29.2684C8.12407 27.5663 9.4142 26.1029 10.9453 24.9749C12.4764 23.847 14.2136 23.0802 16.042 22.7253C17.8703 22.3705 19.7482 22.4356 21.5513 22.9164C22.1945 23.0883 22.8747 22.993 23.4551 22.6497C24.0356 22.3064 24.4732 21.7406 24.6803 21.0657C26.0677 16.5723 28.7418 12.6618 32.3223 9.88988C35.9028 7.11795 40.2076 5.62567 44.625 5.62511V5.62511Z" fill="#545454"/>
</g>
<defs>
<clipPath id="clip0_5_44">
<rect width="84" height="90" fill="white"/>
</clipPath>
</defs>
</svg>
