<svg width="80" height="30" viewBox="0 0 41 45" fill="none" xmlns="http://www.w3.org/2000/svg">
<path d="M4.58047 37.5513L14.9786 26.1387C13.365 23.8491 12.4922 21.0498 12.4922 18.1055C12.4922 14.5811 13.7454 11.2764 16.0116 8.78467C18.2778 6.29297 21.2968 4.92188 24.5039 4.92188C27.711 4.92188 30.73 6.29736 32.9962 8.78467C35.2664 11.272 36.5156 14.5811 36.5156 18.1055C36.5156 21.6255 35.2624 24.939 32.9962 27.4263C30.73 29.918 27.715 31.2891 24.5039 31.2891C21.8213 31.2891 19.2748 30.3311 17.1888 28.5645L6.79062 39.9727C6.76013 40.0061 6.72393 40.0327 6.68408 40.0508C6.64424 40.0689 6.60153 40.0783 6.5584 40.0783C6.51526 40.0783 6.47255 40.0689 6.43271 40.0508C6.39286 40.0327 6.35666 40.0061 6.32617 39.9727L4.58047 38.061C4.54996 38.0276 4.52576 37.9878 4.50924 37.9441C4.49273 37.9004 4.48423 37.8535 4.48423 37.8061C4.48423 37.7588 4.49273 37.7119 4.50924 37.6682C4.52576 37.6245 4.54996 37.5847 4.58047 37.5513V37.5513ZM18.1617 25.0664C19.8594 26.9253 22.1096 27.9492 24.5039 27.9492C26.8982 27.9492 29.1484 26.9253 30.8461 25.0664C32.5397 23.2031 33.4727 20.7334 33.4727 18.1055C33.4727 15.4775 32.5397 13.0034 30.8461 11.1445C29.1484 9.28564 26.8982 8.26172 24.5039 8.26172C22.1096 8.26172 19.8554 9.28125 18.1617 11.1445C16.4681 13.0078 15.5352 15.4775 15.5352 18.1055C15.5352 20.7334 16.4681 23.2075 18.1617 25.0664Z" fill="white"/>
</svg>
