<svg width="88" height="95" viewBox="0 0 88 95" fill="none" xmlns="http://www.w3.org/2000/svg">
<path d="M44.0149 95C43.1808 95 42.3809 94.6872 41.7912 94.1305C41.2014 93.5737 40.87 92.8186 40.87 92.0312V84.3541L36.8069 88.1956C36.2163 88.7523 35.4157 89.0647 34.5812 89.0642C33.7467 89.0636 32.9465 88.7501 32.3569 88.1927C31.7672 87.6352 31.4362 86.8794 31.4368 86.0916C31.4374 85.3038 31.7695 84.5485 32.36 83.9919L40.87 75.9584V52.6419L19.4849 64.2972L16.3651 75.2816C16.1483 76.0422 15.6202 76.6903 14.8972 77.0833C14.1741 77.4764 13.3152 77.5822 12.5095 77.3775C11.7038 77.1728 11.0172 76.6743 10.6009 75.9917C10.1845 75.3092 10.0724 74.4984 10.2892 73.7378L11.7799 68.5009L4.73538 72.3366C4.01345 72.724 3.15847 72.8262 2.35702 72.6208C1.55558 72.4154 0.872725 71.9191 0.457486 71.2402C0.0422466 70.5613 -0.0716689 69.7549 0.140598 68.997C0.352865 68.2391 0.874082 67.5912 1.59051 67.1947L8.63503 63.3591L3.07489 61.9519C2.67594 61.8505 2.30205 61.676 1.97456 61.4382C1.64707 61.2004 1.37239 60.9041 1.16622 60.5661C0.960048 60.2281 0.826413 59.8551 0.772946 59.4684C0.719478 59.0817 0.747226 58.6888 0.854604 58.3122C0.961982 57.9356 1.14689 57.5826 1.39876 57.2735C1.65064 56.9643 1.96455 56.705 2.32258 56.5104C2.68061 56.3158 3.07574 56.1896 3.48541 56.1392C3.89508 56.0887 4.31128 56.1149 4.71023 56.2163L16.3337 59.1553L37.7252 47.5L16.34 35.8447L4.70394 38.7838C3.90346 38.9721 3.05665 38.856 2.34603 38.4604C1.63541 38.0649 1.11789 37.4215 0.90502 36.6692C0.692151 35.9168 0.80098 35.1156 1.20805 34.4382C1.61512 33.7609 2.28783 33.2616 3.08118 33.0481L8.63503 31.6409L1.59051 27.8053C1.22996 27.6118 0.913521 27.3529 0.65941 27.0435C0.405298 26.734 0.218533 26.3802 0.109865 26.0024C0.00119795 25.6245 -0.0272249 25.2301 0.0262337 24.8419C0.0796922 24.4536 0.213977 24.0792 0.421354 23.7401C0.628732 23.4011 0.905108 23.1041 1.23457 22.8662C1.56403 22.6284 1.94007 22.4545 2.34104 22.3544C2.74201 22.2543 3.15999 22.2301 3.57091 22.2831C3.98184 22.3362 4.37759 22.4654 4.73538 22.6634L11.7799 26.4991L10.2892 21.2562C10.1748 20.8773 10.1414 20.4806 10.191 20.0894C10.2407 19.6982 10.3723 19.3201 10.5783 18.9774C10.7842 18.6347 11.0604 18.3341 11.3907 18.0932C11.721 17.8522 12.0988 17.6758 12.5021 17.5741C12.9054 17.4724 13.3261 17.4476 13.7397 17.5009C14.1532 17.5543 14.5514 17.6849 14.911 17.885C15.2705 18.0852 15.5843 18.3509 15.834 18.6667C16.0836 18.9825 16.2642 19.342 16.3651 19.7244L19.4786 30.7028L40.87 42.3581V19.0416L32.36 11.0081C32.0676 10.7325 31.8356 10.4052 31.6772 10.0449C31.5188 9.68463 31.4371 9.29843 31.4368 8.90835C31.4365 8.51827 31.5176 8.13196 31.6755 7.77147C31.8333 7.41098 32.0649 7.08337 32.3569 6.80734C32.6488 6.53132 32.9956 6.31229 33.3772 6.16276C33.7589 6.01323 34.168 5.93612 34.5812 5.93585C34.9944 5.93557 35.4037 6.01213 35.7855 6.16115C36.1674 6.31018 36.5145 6.52874 36.8069 6.80438L40.87 10.6459V2.96875C40.87 2.18139 41.2014 1.42628 41.7912 0.869527C42.3809 0.312778 43.1808 0 44.0149 0C44.849 0 45.6489 0.312778 46.2387 0.869527C46.8285 1.42628 47.1598 2.18139 47.1598 2.96875V10.6459L51.2293 6.80438C51.8198 6.24771 52.6204 5.93529 53.4549 5.93585C54.2895 5.93641 55.0896 6.24989 55.6793 6.80734C56.269 7.3648 56.5999 8.12055 56.5993 8.90835C56.5987 9.69615 56.2667 10.4515 55.6761 11.0081L47.1598 19.0416V42.3581L68.545 30.7028L71.6647 19.7184C71.8815 18.9578 72.4096 18.3097 73.1327 17.9167C73.8557 17.5236 74.7146 17.4178 75.5203 17.6225C76.326 17.8272 77.0126 18.3257 77.429 19.0083C77.8454 19.6908 77.9575 20.5016 77.7406 21.2622L76.2562 26.4991L83.3007 22.6634C84.0227 22.276 84.8777 22.1738 85.6791 22.3792C86.4805 22.5846 87.1634 23.0809 87.5786 23.7598C87.9939 24.4387 88.1078 25.2451 87.8955 26.003C87.6833 26.7609 87.162 27.4088 86.4456 27.8053L79.4011 31.6409L84.9549 33.0481C85.7607 33.2528 86.4472 33.7513 86.8636 34.4339C87.28 35.1165 87.3921 35.9272 87.1752 36.6878C86.9584 37.4484 86.4303 38.0965 85.7073 38.4896C84.9842 38.8827 84.1253 38.9885 83.3196 38.7838L71.6961 35.8447L50.3047 47.5L71.6898 59.1553L83.3196 56.2163C84.1253 56.0123 84.9839 56.1189 85.7063 56.5125C86.4288 56.9061 86.9561 57.5546 87.1721 58.3152C87.3881 59.0757 87.2752 59.8862 86.8582 60.5682C86.4413 61.2502 85.7544 61.7479 84.9487 61.9519L79.3948 63.3591L86.4393 67.1947C87.1558 67.5912 87.677 68.2391 87.8892 68.997C88.1015 69.7549 87.9876 70.5613 87.5724 71.2402C87.1571 71.9191 86.4743 72.4154 85.6728 72.6208C84.8714 72.8262 84.0164 72.724 83.2945 72.3366L76.2499 68.5009L77.7343 73.7438C77.8487 74.1227 77.8821 74.5194 77.8325 74.9106C77.7829 75.3018 77.6513 75.6799 77.4453 76.0226C77.2393 76.3653 76.9631 76.6659 76.6328 76.9068C76.3025 77.1478 75.9247 77.3242 75.5214 77.4259C75.1181 77.5276 74.6974 77.5524 74.2839 77.4991C73.8703 77.4457 73.4721 77.3151 73.1126 77.115C72.753 76.9148 72.4392 76.6491 72.1896 76.3333C71.9399 76.0175 71.7594 75.658 71.6584 75.2756L68.545 64.2972L47.1598 52.6419V75.9584L55.6698 83.9919C56.2604 84.5485 56.5924 85.3038 56.593 86.0916C56.5936 86.8794 56.2627 87.6352 55.673 88.1927C55.0833 88.7501 54.2832 89.0636 53.4486 89.0642C52.6141 89.0647 51.8135 88.7523 51.223 88.1956L47.1535 84.3541V92.0312C47.1535 92.8186 46.8222 93.5737 46.2324 94.1305C45.6426 94.6872 44.8427 95 44.0086 95H44.0149Z" fill="#545454"/>
</svg>
