<svg width="100" height="97" viewBox="0 0 100 97" fill="none" xmlns="http://www.w3.org/2000/svg">
<path d="M73.4375 66.6875H71.875V60.625H73.4375C77.1671 60.7697 80.8033 59.4714 83.546 57.0156C86.2887 54.5598 87.9134 51.1477 88.0625 47.53C88.2117 43.9123 86.8732 40.3852 84.3415 37.7248C81.8097 35.0644 78.2922 33.4885 74.5625 33.3437H71.875L71.5625 30.8581C70.8692 25.7549 68.2871 21.07 64.2972 17.6764C60.3073 14.2827 55.1816 12.4116 49.875 12.4116C44.5685 12.4116 39.4428 14.2827 35.4529 17.6764C31.463 21.07 28.8809 25.7549 28.1875 30.8581L28.125 33.3437H25.4375C21.7079 33.4885 18.1903 35.0644 15.6586 37.7248C13.1269 40.3852 11.7884 43.9123 11.9375 47.53C12.0867 51.1477 13.7114 54.5598 16.4541 57.0156C19.1968 59.4714 22.8329 60.7697 26.5625 60.625H28.125V66.6875H26.5625C21.5513 66.6567 16.7287 64.8301 13.0219 61.5589C9.31506 58.2877 6.98572 53.8028 6.4817 48.9664C5.97768 44.1301 7.33456 39.2837 10.2915 35.3591C13.2484 31.4345 17.5965 28.7086 22.5 27.7056C23.8491 21.6023 27.3152 16.1322 32.3198 12.2083C37.3244 8.28429 43.5649 6.14372 50 6.14372C56.4352 6.14372 62.6757 8.28429 67.6803 12.2083C72.6849 16.1322 76.151 21.6023 77.5 27.7056C82.4035 28.7086 86.7517 31.4345 89.7086 35.3591C92.6655 39.2837 94.0224 44.1301 93.5184 48.9664C93.0144 53.8028 90.685 58.2877 86.9782 61.5589C83.2714 64.8301 78.4488 66.6567 73.4375 66.6875V66.6875Z" fill="#545454"/>
<path d="M49.5938 92.4531L44.1563 89.4219L54 72.75H35.25L50.4062 46.9844L55.8438 50.0156L46 66.6875H64.75L49.5938 92.4531V92.4531Z" fill="#545454"/>
</svg>
